<svg width="64" height="64" viewBox="0 0 64 64" fill="none" xmlns="http://www.w3.org/2000/svg">
  <rect width="64" height="64" rx="16" fill="#FF7A45"/>
  <path d="M19 21C19 14.9249 23.9249 10 30 10H34C40.0751 10 45 14.9249 45 21V39C45 46.1797 39.1797 52 32 52C24.8203 52 19 46.1797 19 39V21Z" fill="#FFF7ED"/>
  <path d="M20 17L26.5 21.5L19 24V17Z" fill="#FFB703"/>
  <path d="M44 17V24L37.5 21.5L44 17Z" fill="#FFB703"/>
  <circle cx="27" cy="28" r="7" fill="#FFFFFF"/>
  <circle cx="37" cy="28" r="7" fill="#FFFFFF"/>
  <circle cx="27" cy="28" r="3.6" fill="#1D2A7A"/>
  <circle cx="37" cy="28" r="3.6" fill="#1D2A7A"/>
  <circle cx="28.2" cy="26.8" r="1.1" fill="#FFFFFF"/>
  <circle cx="38.2" cy="26.8" r="1.1" fill="#FFFFFF"/>
  <path d="M32 31L36.5 38H27.5L32 31Z" fill="#FFB703"/>
  <path d="M24 42C26.2615 44.0988 28.9646 45 32 45C35.0354 45 37.7385 44.0988 40 42" stroke="#FF7A45" stroke-width="3" stroke-linecap="round"/>
</svg>
